<svg version="1.1" xmlns="http://www.w3.org/2000/svg" viewBox="0 0 250 250"><desc>Created with Snap</desc><defs></defs><g transform="matrix(0.0327,0,0,0.0327,98.6988,137.3549)"><rect x="-3022.6511942936822" y="-1562.2400848388672" width="7656.25153151292" height="2367.7440856933595" fill="#9f92fc" style=""></rect><g transform="matrix(67.4363,0,0,67.4363,-3120.0691,-1996.8395)"><path d="M35,15v12H13V15H35 M39,11H9v20h30V11L39,11z" fill="#292929" style=""></path><path d="M28,33v2h-8v-2H6v4h36v-4H28z M37,36c-0.6,0-1-0.4-1-1c0-0.6,0.4-1,1-1s1,0.4,1,1C38,35.6,37.6,36,37,36z" fill="#292929" style=""></path><desc>Created with Snap</desc><defs></defs></g><g><g transform="matrix(1.024,0,0,-1.024,0,0)"><path d="M356 561L156 561L156 279L356 279Q521 279 521 421Q521 496 479 528Q438 561 356 561ZM356 233L156 233L156 13Q156 3 148 -4Q140 -10 129 -10Q118 -10 110 -4Q102 3 102 13L102 561L42 561Q32 561 25 567Q19 574 19 584Q19 594 25 601Q32 608 42 608L356 608Q575 608 575 421Q575 286 456 247L585 24Q587 20 587 15Q587 1 575 -5Q564 -11 555 -11Q546 -11 539 0L402 235Q376 233 356 233ZM1067 47L1114 47Q1124 47 1130 40Q1137 34 1137 24Q1137 14 1130 7Q1124 0 1114 0L1060 0Q998 0 998 68Q938 -10 847 -10Q793 -10 758 17Q724 45 724 98L724 308Q724 327 697 327L658 327Q648 327 641 334Q635 341 635 351Q635 361 641 367Q648 374 658 374L697 374Q778 374 778 309L778 98Q778 68 796 52Q815 36 848 36Q940 36 994 132L994 361Q994 371 1002 377Q1010 384 1021 384Q1032 384 1040 377Q1048 371 1048 361L1048 66Q1048 47 1067 47ZM1292 351L1292 13Q1292 3 1284 -4Q1276 -10 1265 -10Q1254 -10 1246 -4Q1238 3 1238 13L1238 327L1172 327Q1162 327 1155 333Q1149 340 1149 350Q1149 360 1155 367Q1162 374 1172 374L1269 374Q1292 374 1292 351ZM1236 524Q1227 534 1227 548Q1227 562 1236 572Q1245 582 1261 582Q1277 582 1286 572Q1296 562 1296 548Q1296 534 1286 524Q1277 514 1261 514Q1245 514 1236 524ZM2111 121Q2118 131 2127 131Q2136 131 2146 122Q2157 114 2157 106Q2157 98 2151 91Q2067 -10 1920 -10Q1790 -10 1708 76Q1626 163 1626 303Q1626 443 1708 530Q1790 618 1914 618Q2039 618 2122 570Q2137 562 2137 549L2137 463Q2137 453 2129 446Q2121 440 2110 440Q2099 440 2091 446Q2083 453 2083 463L2083 537Q2009 571 1920 571Q1813 571 1746 496Q1680 422 1680 304Q1680 186 1746 111Q1813 37 1927 37Q2042 37 2111 121ZM2422 36Q2483 36 2521 78Q2560 120 2560 186Q2560 253 2521 295Q2483 338 2422 338Q2361 338 2322 295Q2284 253 2284 186Q2284 120 2322 78Q2361 36 2422 36ZM2283 45Q2230 101 2230 187Q2230 273 2284 328Q2338 384 2422 384Q2506 384 2559 328Q2613 273 2613 186Q2613 100 2559 45Q2506 -10 2421 -10Q2337 -10 2283 45ZM3000 220Q2997 274 2968 306Q2940 338 2886 338Q2833 338 2797 305Q2761 273 2752 220L3000 220ZM3002 96Q3009 108 3018 108Q3027 108 3036 103Q3045 99 3048 89Q3052 80 3047 72Q2996 -10 2885 -10Q2797 -10 2746 46Q2696 103 2696 189Q2696 275 2748 329Q2800 384 2885 384Q2970 384 3011 333Q3053 282 3053 197Q3053 174 3027 174L2750 173Q2754 111 2790 73Q2827 36 2885 36Q2963 36 3002 96ZM3247 47L3286 47Q3296 47 3302 40Q3309 33 3309 23Q3309 13 3302 6Q3296 0 3286 0L3247 0Q3166 0 3166 65L3166 703L3100 703Q3090 703 3083 709Q3077 716 3077 726Q3077 736 3083 743Q3090 750 3100 750L3193 750Q3204 750 3212 743Q3220 736 3220 726L3220 66Q3220 47 3247 47ZM3441 242L3441 13Q3441 3 3433 -4Q3425 -10 3414 -10Q3403 -10 3395 -4Q3387 3 3387 13L3387 703L3321 703Q3311 703 3304 709Q3298 716 3298 726Q3298 736 3304 743Q3311 750 3321 750L3415 750Q3425 750 3433 743Q3441 736 3441 726L3441 307Q3503 386 3588 386Q3644 386 3677 357Q3711 329 3711 278L3711 65Q3711 47 3738 47L3777 47Q3787 47 3793 40Q3800 33 3800 23Q3800 13 3793 6Q3787 0 3777 0L3738 0Q3657 0 3657 65L3657 278Q3657 340 3588 340Q3496 340 3441 242ZM4034 36Q4095 36 4133 78Q4172 120 4172 186Q4172 253 4133 295Q4095 338 4034 338Q3973 338 3934 295Q3896 253 3896 186Q3896 120 3934 78Q3973 36 4034 36ZM3895 45Q3842 101 3842 187Q3842 273 3896 328Q3950 384 4034 384Q4118 384 4171 328Q4225 273 4225 186Q4225 100 4171 45Q4118 -10 4033 -10Q3949 -10 3895 45Z" fill="#292929" style=""></path></g></g></g></svg>