<svg data-v-423bf9ae="" xmlns="http://www.w3.org/2000/svg" viewBox="0 0 413 90" class="iconLeftSlogan"><!----><!----><!----><g data-v-423bf9ae="" id="5160c443-f43b-463a-97c4-8df85a6ede17" fill="black" transform="matrix(4.559270569581267,0,0,4.559270569581267,108.13070539676389,-23.480243391312293)"><path d="M5.43 8.08L5.43 8.08Q6.76 8.08 7.61 8.80L7.61 8.80L7.61 8.80Q8.46 9.52 8.46 10.96L8.46 10.96L8.46 10.96Q8.46 11.90 7.95 12.73L7.95 12.73L7.95 12.73Q7.43 13.57 6.59 14.18L6.59 14.18L6.59 14.18Q5.75 14.78 4.77 15.05L4.77 15.05L6.30 16.91L6.30 16.91Q6.71 17.29 7.11 17.29L7.11 17.29L7.11 17.29Q7.45 17.29 7.80 17.04L7.80 17.04L7.80 17.04Q8.15 16.79 8.51 16.42L8.51 16.42L8.72 16.60L8.72 16.60Q8.67 16.67 8.29 17.17L8.29 17.17L8.29 17.17Q7.92 17.67 7.44 17.99L7.44 17.99L7.44 17.99Q6.96 18.31 6.50 18.31L6.50 18.31L6.50 18.31Q6.10 18.31 5.75 18.07L5.75 18.07L5.75 18.07Q5.39 17.82 4.97 17.29L4.97 17.29L3.29 15.23L3.37 14.85L3.37 14.85Q4.31 14.76 5.17 14.27L5.17 14.27L5.17 14.27Q6.03 13.79 6.57 12.99L6.57 12.99L6.57 12.99Q7.10 12.19 7.10 11.23L7.10 11.23L7.10 11.23Q7.10 10.18 6.46 9.55L6.46 9.55L6.46 9.55Q5.82 8.92 4.58 8.92L4.58 8.92L4.58 8.92Q3.61 8.92 2.54 9.37L2.54 9.37L2.54 9.37Q1.47 9.83 0.67 10.56L0.67 10.56L0.41 10.26L0.41 10.26Q1.43 9.31 2.79 8.69L2.79 8.69L2.79 8.69Q4.16 8.08 5.43 8.08L5.43 8.08ZM2.55 10.11L2.55 17.78L1.26 18.30L1.26 10.60L2.55 10.11ZM15.68 10.89L15.68 16.87L15.68 16.87Q15.68 17.08 15.79 17.21L15.79 17.21L15.79 17.21Q15.89 17.35 16.09 17.35L16.09 17.35L16.09 17.35Q16.38 17.35 16.80 16.80L16.80 16.80L17.01 17.01L17.01 17.01Q16.72 17.64 16.30 17.90L16.30 17.90L16.30 17.90Q15.89 18.16 15.89 18.16L15.89 18.16L15.89 18.16Q15.89 18.16 15.53 18.16L15.53 18.16L15.53 18.16Q15.08 18.16 14.85 17.91L14.85 17.91L14.85 17.91Q14.62 17.65 14.52 17.00L14.52 17.00L14.52 17.00Q14.42 16.35 14.42 15.06L14.42 15.06L14.42 15.06Q14.42 14.29 14.43 13.83L14.43 13.83L14.32 13.55L14.28 13.55L14.28 13.55Q13.92 15.27 13.27 16.77L13.27 16.77L13.27 16.77Q12.61 18.26 11.41 18.26L11.41 18.26L11.41 18.26Q10.96 18.26 10.76 18.03L10.76 18.03L10.76 18.03Q10.56 17.81 10.51 17.42L10.51 17.42L10.51 17.42Q10.47 17.04 10.47 16.24L10.47 16.24L10.47 12.29L10.47 12.29Q10.47 12.05 10.37 11.91L10.37 11.91L10.37 11.91Q10.26 11.77 10.08 11.77L10.08 11.77L10.08 11.77Q9.74 11.77 9.32 12.33L9.32 12.33L9.16 12.11L9.16 12.11Q9.38 11.58 9.72 11.32L9.72 11.32L9.72 11.32Q10.07 11.06 10.37 11.00L10.37 11.00L10.37 11.00Q10.67 10.93 10.67 10.98L10.67 10.98L10.67 10.98Q10.65 10.98 10.63 10.98L10.63 10.98L10.63 10.98Q10.60 10.99 10.54 10.99L10.54 10.99L10.54 10.99Q11.75 10.99 11.75 12.38L11.75 12.38L11.75 16.41L11.75 16.41Q11.75 16.72 11.82 16.85L11.82 16.85L11.82 16.85Q11.89 16.98 11.98 16.98L11.98 16.98L11.98 16.98Q12.59 16.98 13.10 15.81L13.10 15.81L13.10 15.81Q13.62 14.63 13.95 13.22L13.95 13.22L13.95 13.22Q14.28 11.80 14.28 11.52L14.28 11.52L15.68 10.89ZM19.77 6.41L19.29 9.67L18.83 9.84L18.26 6.93L19.77 6.41ZM19.75 11.14L19.75 16.91L19.75 16.91Q19.75 17.12 19.86 17.26L19.86 17.26L19.86 17.26Q19.96 17.39 20.16 17.39L20.16 17.39L20.16 17.39Q20.31 17.39 20.50 17.25L20.50 17.25L20.50 17.25Q20.69 17.11 20.89 16.84L20.89 16.84L21.11 17.05L21.11 17.05Q20.79 17.65 20.34 17.91L20.34 17.91L20.34 17.91Q19.88 18.16 19.50 18.16L19.50 18.16L19.50 18.16Q19.00 18.16 18.73 17.84L18.73 17.84L18.73 17.84Q18.45 17.51 18.45 16.74L18.45 16.74L18.45 11.65L19.75 11.14ZM30.56 7.87L30.56 7.87Q31.46 7.87 32.00 8.37L32.00 8.37L32.00 8.37Q32.55 8.88 32.55 9.69L32.55 9.69L32.55 9.69Q32.55 10.33 32.21 11.02L32.21 11.02L32.21 11.02Q31.86 11.70 31.30 12.22L31.30 12.22L31.30 12.22Q30.74 12.74 30.13 12.92L30.13 12.92L29.99 12.67L29.99 12.67Q30.59 12.40 30.96 11.82L30.96 11.82L30.96 11.82Q31.33 11.23 31.33 10.57L31.33 10.57L31.33 10.57Q31.33 9.73 30.83 9.22L30.83 9.22L30.83 9.22Q30.32 8.71 29.48 8.71L29.48 8.71L29.48 8.71Q28.64 8.71 27.90 9.31L27.90 9.31L27.90 9.31Q27.16 9.91 26.71 10.91L26.71 10.91L26.71 10.91Q26.26 11.91 26.26 13.05L26.26 13.05L26.26 13.05Q26.26 14.28 26.64 15.22L26.64 15.22L26.64 15.22Q27.02 16.16 27.71 16.67L27.71 16.67L27.71 16.67Q28.41 17.18 29.30 17.18L29.30 17.18L29.30 17.18Q29.97 17.18 30.62 16.89L30.62 16.89L30.62 16.89Q31.26 16.60 31.79 16.06L31.79 16.06L32.10 16.37L32.10 16.37Q30.62 18.24 28.59 18.24L28.59 18.24L28.59 18.24Q27.45 18.24 26.63 17.68L26.63 17.68L26.63 17.68Q25.80 17.12 25.36 16.16L25.36 16.16L25.36 16.16Q24.92 15.20 24.92 14.03L24.92 14.03L24.92 14.03Q24.92 12.31 25.68 10.90L25.68 10.90L25.68 10.90Q26.45 9.49 27.75 8.68L27.75 8.68L27.75 8.68Q29.05 7.87 30.56 7.87L30.56 7.87ZM36.48 10.96L36.74 11.26L36.74 11.26Q35.69 11.93 35.08 12.75L35.08 12.75L35.08 12.75Q34.48 13.58 34.48 14.70L34.48 14.70L34.48 14.70Q34.48 15.33 34.75 15.97L34.75 15.97L34.75 15.97Q35.01 16.60 35.55 17.02L35.55 17.02L35.55 17.02Q36.08 17.44 36.82 17.44L36.82 17.44L36.82 17.44Q37.42 17.44 37.89 17.16L37.89 17.16L37.89 17.16Q38.36 16.88 38.62 16.41L38.62 16.41L38.62 16.41Q38.88 15.93 38.88 15.36L38.88 15.36L38.88 15.36Q38.88 14.70 38.48 14.01L38.48 14.01L38.48 14.01Q38.08 13.33 37.44 12.85L37.44 12.85L37.44 12.85Q36.79 12.38 36.12 12.32L36.12 12.32L36.12 12.32Q36.40 12.04 36.79 11.73L36.79 11.73L36.79 11.73Q37.18 11.42 37.59 11.13L37.59 11.13L37.59 11.13Q38.56 11.45 39.12 12.36L39.12 12.36L39.12 12.36Q39.68 13.26 39.68 14.36L39.68 14.36L39.68 14.36Q39.68 15.34 39.28 16.25L39.28 16.25L39.28 16.25Q38.88 17.15 38.11 17.72L38.11 17.72L38.11 17.72Q37.34 18.28 36.29 18.28L36.29 18.28L36.29 18.28Q35.45 18.28 34.74 17.87L34.74 17.87L34.74 17.87Q34.03 17.46 33.63 16.74L33.63 16.74L33.63 16.74Q33.22 16.03 33.22 15.16L33.22 15.16L33.22 15.16Q33.22 13.64 34.13 12.52L34.13 12.52L34.13 12.52Q35.03 11.40 36.48 10.96L36.48 10.96ZM44.91 10.96L44.91 10.96Q45.67 10.96 46.17 11.37L46.17 11.37L46.17 11.37Q46.68 11.77 46.68 12.57L46.68 12.57L46.68 12.57Q46.68 13.22 45.98 14.01L45.98 14.01L45.98 14.01Q45.29 14.80 44.36 15.46L44.36 15.46L44.36 15.46Q43.43 16.11 42.77 16.38L42.77 16.38L42.77 16.38Q43.12 16.94 43.57 17.16L43.57 17.16L43.57 17.16Q44.02 17.37 44.62 17.37L44.62 17.37L44.62 17.37Q45.29 17.37 45.96 17.03L45.96 17.03L45.96 17.03Q46.62 16.69 47.05 16.14L47.05 16.14L47.22 16.44L47.22 16.44Q46.54 17.32 45.77 17.79L45.77 17.79L45.77 17.79Q45.00 18.26 43.88 18.26L43.88 18.26L43.88 18.26Q43.02 18.26 42.35 17.84L42.35 17.84L42.35 17.84Q41.68 17.42 41.30 16.71L41.30 16.71L41.30 16.71Q40.92 16.00 40.92 15.18L40.92 15.18L40.92 15.18Q40.92 14.14 41.48 13.16L41.48 13.16L41.48 13.16Q42.04 12.18 42.97 11.57L42.97 11.57L42.97 11.57Q43.89 10.96 44.91 10.96L44.91 10.96ZM44.18 11.84L44.18 11.84Q43.57 11.84 43.09 12.24L43.09 12.24L43.09 12.24Q42.60 12.63 42.33 13.24L42.33 13.24L42.33 13.24Q42.06 13.86 42.06 14.52L42.06 14.52L42.06 14.52Q42.06 15.39 42.46 16.00L42.46 16.00L42.46 16.00Q43.05 15.74 43.74 15.20L43.74 15.20L43.74 15.20Q44.42 14.66 44.90 14.03L44.90 14.03L44.90 14.03Q45.37 13.40 45.37 12.88L45.37 12.88L45.37 12.88Q45.37 11.84 44.18 11.84L44.18 11.84ZM50.15 5.15L50.15 16.91L50.15 16.91Q50.15 17.08 50.25 17.23L50.25 17.23L50.25 17.23Q50.34 17.39 50.58 17.39L50.58 17.39L50.58 17.39Q50.78 17.39 51.00 17.21L51.00 17.21L51.00 17.21Q51.21 17.04 51.32 16.84L51.32 16.84L51.56 17.05L51.56 17.05Q51.32 17.51 50.90 17.84L50.90 17.84L50.90 17.84Q50.48 18.16 50.06 18.16L50.06 18.16L50.06 18.16Q48.89 18.16 48.89 16.74L48.89 16.74L48.89 5.68L50.15 5.15ZM54.26 5.15L54.26 15.11L54.32 15.11L54.32 15.11Q54.46 14.34 54.82 13.38L54.82 13.38L54.82 13.38Q55.17 12.42 55.78 11.69L55.78 11.69L55.78 11.69Q56.38 10.96 57.19 10.96L57.19 10.96L57.19 10.96Q57.62 10.96 57.83 11.28L57.83 11.28L57.83 11.28Q58.03 11.59 58.07 11.98L58.07 11.98L58.07 11.98Q58.10 12.38 58.10 13.02L58.10 13.02L58.10 16.91L58.10 16.91Q58.10 17.08 58.21 17.23L58.21 17.23L58.21 17.23Q58.31 17.39 58.53 17.39L58.53 17.39L58.53 17.39Q58.90 17.39 59.28 16.84L59.28 16.84L59.44 17.05L59.44 17.05Q59.25 17.51 58.82 17.84L58.82 17.84L58.82 17.84Q58.39 18.16 57.96 18.16L57.96 18.16L57.96 18.16Q56.87 18.16 56.87 16.74L56.87 16.74L56.87 13.03L56.87 13.03Q56.87 12.85 56.79 12.70L56.79 12.70L56.79 12.70Q56.71 12.54 56.53 12.54L56.53 12.54L56.53 12.54Q55.82 12.54 55.30 13.66L55.30 13.66L55.30 13.66Q54.78 14.77 54.50 16.11L54.50 16.11L54.50 16.11Q54.22 17.44 54.22 17.92L54.22 17.92L52.98 18.28L52.98 5.68L54.26 5.15ZM63.59 10.96L63.84 11.26L63.84 11.26Q62.79 11.93 62.19 12.75L62.19 12.75L62.19 12.75Q61.59 13.58 61.59 14.70L61.59 14.70L61.59 14.70Q61.59 15.33 61.85 15.97L61.85 15.97L61.85 15.97Q62.12 16.60 62.65 17.02L62.65 17.02L62.65 17.02Q63.18 17.44 63.92 17.44L63.92 17.44L63.92 17.44Q64.53 17.44 65.00 17.16L65.00 17.16L65.00 17.16Q65.46 16.88 65.72 16.41L65.72 16.41L65.72 16.41Q65.98 15.93 65.98 15.36L65.98 15.36L65.98 15.36Q65.98 14.70 65.58 14.01L65.58 14.01L65.58 14.01Q65.18 13.33 64.54 12.85L64.54 12.85L64.54 12.85Q63.90 12.38 63.22 12.32L63.22 12.32L63.22 12.32Q63.50 12.04 63.90 11.73L63.90 11.73L63.90 11.73Q64.29 11.42 64.69 11.13L64.69 11.13L64.69 11.13Q65.66 11.45 66.22 12.36L66.22 12.36L66.22 12.36Q66.78 13.26 66.78 14.36L66.78 14.36L66.78 14.36Q66.78 15.34 66.38 16.25L66.38 16.25L66.38 16.25Q65.98 17.15 65.21 17.72L65.21 17.72L65.21 17.72Q64.44 18.28 63.39 18.28L63.39 18.28L63.39 18.28Q62.55 18.28 61.85 17.87L61.85 17.87L61.85 17.87Q61.14 17.46 60.73 16.74L60.73 16.74L60.73 16.74Q60.33 16.03 60.33 15.16L60.33 15.16L60.33 15.16Q60.33 13.64 61.23 12.52L61.23 12.52L61.23 12.52Q62.13 11.40 63.59 10.96L63.59 10.96Z"></path></g><!----><g data-v-423bf9ae="" id="68168f02-dc23-45b6-a2dc-670e11f073e6" transform="matrix(2.8125,0,0,2.8125,0,0)" stroke="none" fill="black"><path d="M32 0H0v32h32V0zm-2.812 19.938H23.53C22.109 22.648 19.272 24.5 16 24.5s-6.109-1.852-7.529-4.562H2.812v-7.875H8.47C9.891 9.352 12.728 7.5 16 7.5s6.109 1.852 7.529 4.562h5.658v7.876z"></path></g><!----><g data-v-423bf9ae="" id="97802a82-ea48-4db4-8d09-e3dc07cc0920" fill="black" transform="matrix(2.0031361202040854,0,0,2.0031361202040854,109.31893620611714,48.60215564238837)"><path d="M3.75 14.40L0.34 14.40L0.38 14.11L1.46 13.90L1.46 6.51L0.35 6.36L0.41 6.12L0.41 6.12Q0.58 6.09 1.03 6.02L1.03 6.02L1.03 6.02Q1.48 5.94 1.71 5.91L1.71 5.91L1.71 5.91Q1.93 5.88 2.34 5.84L2.34 5.84L2.34 5.84Q2.75 5.81 3.17 5.81L3.17 5.81L3.17 5.81Q3.86 5.81 4.45 5.96L4.45 5.96L4.45 5.96Q5.04 6.10 5.50 6.40L5.50 6.40L5.50 6.40Q5.96 6.69 6.22 7.18L6.22 7.18L6.22 7.18Q6.48 7.66 6.48 8.29L6.48 8.29L6.48 8.29Q6.48 8.90 6.20 9.43L6.20 9.43L6.20 9.43Q5.92 9.97 5.46 10.33L5.46 10.33L5.46 10.33Q5.00 10.69 4.40 10.90L4.40 10.90L4.40 10.90Q3.79 11.10 3.16 11.10L3.16 11.10L3.16 11.10Q2.88 11.10 2.82 11.09L2.82 11.09L2.75 10.80L3.12 10.78L3.12 10.78Q3.78 10.75 4.28 10.55L4.28 10.55L4.28 10.55Q4.77 10.36 5.06 10.03L5.06 10.03L5.06 10.03Q5.35 9.70 5.49 9.30L5.49 9.30L5.49 9.30Q5.63 8.90 5.63 8.43L5.63 8.43L5.63 8.43Q5.63 7.98 5.47 7.57L5.47 7.57L5.47 7.57Q5.30 7.16 4.98 6.83L4.98 6.83L4.98 6.83Q4.66 6.50 4.13 6.31L4.13 6.31L4.13 6.31Q3.61 6.11 2.96 6.11L2.96 6.11L2.21 6.15L2.21 13.95L3.81 14.08L3.75 14.40ZM14.95 9.75L14.95 9.75L14.95 9.75Q14.95 11.03 15.31 12.01L15.31 12.01L15.31 12.01Q15.67 13.00 16.39 13.57L16.39 13.57L16.39 13.57Q17.11 14.14 18.09 14.14L18.09 14.14L18.09 14.14Q18.66 14.14 19.15 13.92L19.15 13.92L19.15 13.92Q19.65 13.70 19.99 13.33L19.99 13.33L19.99 13.33Q20.34 12.96 20.58 12.49L20.58 12.49L20.58 12.49Q20.82 12.01 20.94 11.50L20.94 11.50L20.94 11.50Q21.05 10.99 21.05 10.48L21.05 10.48L21.05 10.48Q21.05 8.50 20.20 7.29L20.20 7.29L20.20 7.29Q19.35 6.07 17.90 6.07L17.90 6.07L17.90 6.07Q17.32 6.07 16.83 6.28L16.83 6.28L16.83 6.28Q16.34 6.49 16.00 6.85L16.00 6.85L16.00 6.85Q15.65 7.21 15.42 7.69L15.42 7.69L15.42 7.69Q15.18 8.16 15.06 8.69L15.06 8.69L15.06 8.69Q14.95 9.21 14.95 9.75ZM14.20 10.16L14.20 10.16L14.20 10.16Q14.20 8.16 15.30 6.92L15.30 6.92L15.30 6.92Q16.39 5.69 18.23 5.69L18.23 5.69L18.23 5.69Q19.37 5.69 20.18 6.27L20.18 6.27L20.18 6.27Q21 6.86 21.40 7.84L21.40 7.84L21.40 7.84Q21.79 8.83 21.79 10.11L21.79 10.11L21.79 10.11Q21.79 10.75 21.64 11.38L21.64 11.38L21.64 11.38Q21.49 12.00 21.17 12.58L21.17 12.58L21.17 12.58Q20.84 13.17 20.38 13.61L20.38 13.61L20.38 13.61Q19.92 14.05 19.24 14.32L19.24 14.32L19.24 14.32Q18.57 14.58 17.76 14.58L17.76 14.58L17.76 14.58Q16.71 14.58 15.88 13.98L15.88 13.98L15.88 13.98Q15.06 13.37 14.63 12.37L14.63 12.37L14.63 12.37Q14.20 11.37 14.20 10.16ZM31.34 6.18L31.34 10.11L32.89 10.11L32.89 10.11Q33.57 9.86 34.03 9.28L34.03 9.28L34.03 9.28Q34.49 8.70 34.49 8.02L34.49 8.02L34.49 8.02Q34.49 7.11 33.87 6.63L33.87 6.63L33.87 6.63Q33.25 6.15 32.16 6.15L32.16 6.15L31.34 6.18ZM32.71 14.40L29.52 14.40L29.57 14.11L30.63 13.90L30.63 6.51L29.54 6.37L29.60 6.13L29.60 6.13Q31.42 5.83 32.50 5.83L32.50 5.83L32.50 5.83Q33.27 5.83 33.88 6.05L33.88 6.05L33.88 6.05Q34.49 6.27 34.86 6.73L34.86 6.73L34.86 6.73Q35.24 7.19 35.24 7.83L35.24 7.83L35.24 7.83Q35.24 8.57 34.81 9.14L34.81 9.14L34.81 9.14Q34.38 9.72 33.35 10.23L33.35 10.23L33.35 10.23L34.67 12.19L34.67 12.19Q35.38 13.23 35.73 13.58L35.73 13.58L35.73 13.58Q36.07 13.92 36.46 14.05L36.46 14.05L36.78 14.16L36.74 14.42L36.74 14.42Q36.45 14.52 36.11 14.52L36.11 14.52L36.11 14.52Q35.82 14.52 35.57 14.40L35.57 14.40L35.57 14.40Q35.31 14.28 35.07 14.01L35.07 14.01L35.07 14.01Q34.83 13.75 34.64 13.48L34.64 13.48L34.64 13.48Q34.46 13.22 34.19 12.77L34.19 12.77L32.80 10.49L31.34 10.49L31.34 13.95L32.78 14.08L32.71 14.40ZM44.54 8.09L44.47 5.89L51.53 5.89L51.29 8.16L50.95 8.12L50.83 6.24L48.30 6.24L48.30 13.90L49.51 14.08L49.43 14.40L46.33 14.40L46.37 14.11L47.56 13.90L47.56 6.24L45.13 6.24L44.89 8.15L44.54 8.09ZM60.45 6.36L59.24 6.18L59.29 5.89L65.48 5.89L65.26 8.09L64.92 8.04L64.78 6.24L61.15 6.24L61.15 10.07L63.43 10.07L63.70 9.11L64.08 9.06L63.87 11.72L63.49 11.77L63.37 10.43L61.15 10.43L61.15 13.92L62.84 14.03L62.75 14.40L59.27 14.40L59.29 14.11L60.45 13.90L60.45 6.36ZM73.97 9.75L73.97 9.75L73.97 9.75Q73.97 11.03 74.33 12.01L74.33 12.01L74.33 12.01Q74.70 13.00 75.41 13.57L75.41 13.57L75.41 13.57Q76.13 14.14 77.11 14.14L77.11 14.14L77.11 14.14Q77.68 14.14 78.18 13.92L78.18 13.92L78.18 13.92Q78.67 13.70 79.01 13.33L79.01 13.33L79.01 13.33Q79.36 12.96 79.60 12.49L79.60 12.49L79.60 12.49Q79.84 12.01 79.96 11.50L79.96 11.50L79.96 11.50Q80.08 10.99 80.08 10.48L80.08 10.48L80.08 10.48Q80.08 8.50 79.23 7.29L79.23 7.29L79.23 7.29Q78.37 6.07 76.92 6.07L76.92 6.07L76.92 6.07Q76.34 6.07 75.85 6.28L75.85 6.28L75.85 6.28Q75.36 6.49 75.02 6.85L75.02 6.85L75.02 6.85Q74.68 7.21 74.44 7.69L74.44 7.69L74.44 7.69Q74.20 8.16 74.08 8.69L74.08 8.69L74.08 8.69Q73.97 9.21 73.97 9.75ZM73.22 10.16L73.22 10.16L73.22 10.16Q73.22 8.16 74.32 6.92L74.32 6.92L74.32 6.92Q75.41 5.69 77.25 5.69L77.25 5.69L77.25 5.69Q78.39 5.69 79.20 6.27L79.20 6.27L79.20 6.27Q80.02 6.86 80.42 7.84L80.42 7.84L80.42 7.84Q80.81 8.83 80.81 10.11L80.81 10.11L80.81 10.11Q80.81 10.75 80.66 11.38L80.66 11.38L80.66 11.38Q80.51 12.00 80.19 12.58L80.19 12.58L80.19 12.58Q79.86 13.17 79.40 13.61L79.40 13.61L79.40 13.61Q78.94 14.05 78.26 14.32L78.26 14.32L78.26 14.32Q77.59 14.58 76.78 14.58L76.78 14.58L76.78 14.58Q75.73 14.58 74.90 13.98L74.90 13.98L74.90 13.98Q74.08 13.37 73.65 12.37L73.65 12.37L73.65 12.37Q73.22 11.37 73.22 10.16ZM94.71 14.40L88.55 14.40L88.59 14.11L89.74 13.90L89.74 6.34L88.57 6.17L88.59 5.90L91.70 5.90L91.68 6.17L90.47 6.32L90.47 14.03L94.10 14.03L94.62 12.09L94.92 12.14L94.71 14.40ZM103.80 6.33L102.62 6.16L102.66 5.89L105.79 5.89L105.74 6.16L104.54 6.32L104.54 13.95L105.86 14.08L105.80 14.40L102.69 14.40L102.72 14.11L103.80 13.90L103.80 6.33ZM114.35 9.75L114.35 9.75L114.35 9.75Q114.35 11.03 114.71 12.01L114.71 12.01L114.71 12.01Q115.08 13.00 115.79 13.57L115.79 13.57L115.79 13.57Q116.51 14.14 117.49 14.14L117.49 14.14L117.49 14.14Q118.06 14.14 118.56 13.92L118.56 13.92L118.56 13.92Q119.05 13.70 119.39 13.33L119.39 13.33L119.39 13.33Q119.74 12.96 119.98 12.49L119.98 12.49L119.98 12.49Q120.22 12.01 120.34 11.50L120.34 11.50L120.34 11.50Q120.46 10.99 120.46 10.48L120.46 10.48L120.46 10.48Q120.46 8.50 119.60 7.29L119.60 7.29L119.60 7.29Q118.75 6.07 117.30 6.07L117.30 6.07L117.30 6.07Q116.72 6.07 116.23 6.28L116.23 6.28L116.23 6.28Q115.74 6.49 115.40 6.85L115.40 6.85L115.40 6.85Q115.06 7.21 114.82 7.69L114.82 7.69L114.82 7.69Q114.58 8.16 114.46 8.69L114.46 8.69L114.46 8.69Q114.35 9.21 114.35 9.75ZM113.60 10.16L113.60 10.16L113.60 10.16Q113.60 8.16 114.70 6.92L114.70 6.92L114.70 6.92Q115.79 5.69 117.63 5.69L117.63 5.69L117.63 5.69Q118.77 5.69 119.58 6.27L119.58 6.27L119.58 6.27Q120.40 6.86 120.80 7.84L120.80 7.84L120.80 7.84Q121.19 8.83 121.19 10.11L121.19 10.11L121.19 10.11Q121.19 10.75 121.04 11.38L121.04 11.38L121.04 11.38Q120.89 12.00 120.57 12.58L120.57 12.58L120.57 12.58Q120.24 13.17 119.78 13.61L119.78 13.61L119.78 13.61Q119.32 14.05 118.64 14.32L118.64 14.32L118.64 14.32Q117.97 14.58 117.16 14.58L117.16 14.58L117.16 14.58Q116.11 14.58 115.28 13.98L115.28 13.98L115.28 13.98Q114.46 13.37 114.03 12.37L114.03 12.37L114.03 12.37Q113.60 11.37 113.60 10.16Z"></path></g></svg>